<?xml version="1.0" encoding="utf-8"?>
<!-- Generator: Adobe Illustrator 16.0.0, SVG Export Plug-In . SVG Version: 6.00 Build 0)  -->
<!DOCTYPE svg PUBLIC "-//W3C//DTD SVG 1.1//EN" "http://www.w3.org/Graphics/SVG/1.1/DTD/svg11.dtd">
<svg version="1.1" id="Layer_2" xmlns="http://www.w3.org/2000/svg" xmlns:xlink="http://www.w3.org/1999/xlink" x="0px" y="0px"
	 width="58.716px" height="25.641px" viewBox="0 0 58.716 25.641" enable-background="new 0 0 58.716 25.641" xml:space="preserve">
<path fill="#FFFFFF" d="M0.198,12.74c-0.012,0.07-0.02,0.141-0.019,0.213c0.005,0.213,0.07,0.414,0.183,0.585
	c-0.001,0.034-0.003,0.067-0.001,0.102c0.023,0.401,0.26,0.759,0.622,0.935l22.534,10.955c0.452,0.219,0.997,0.108,1.324-0.272
	c0.329-0.381,0.359-0.936,0.076-1.35c-0.315-0.462-0.645-0.947-0.938-1.382c-0.013-0.021-0.026-0.04-0.04-0.06
	c-0.405-0.6-0.734-1.093-0.85-1.271c-0.054-0.159-0.145-0.307-0.269-0.429c-0.151-0.15-0.35-0.259-0.559-0.307
	c-0.929-0.375-4.268-2.729-12.374-6.565l1.163-0.064l41.644,6.192c0.402,0.056,0.792-0.1,1.038-0.415
	c0.246-0.314,0.302-0.738,0.149-1.107l-1.913-4.6l0.19,0.008c0.073,0.006,0.158-0.001,0.237-0.016l5.404-1.141
	c0.565-0.101,0.96-0.613,0.912-1.185c-0.048-0.572-0.524-1.013-1.098-1.016l-2.667-0.021c0.012-0.07,0.016-0.143,0.013-0.218
	c-0.022-0.597-0.513-1.066-1.107-1.066c-0.007,0-0.015,0-0.024,0l-41.217,0.867l-1.438-0.057l4.354-3.346l8.81-4.621
	c0.541-0.284,0.751-0.954,0.466-1.496C24.606,0.216,24.22,0,23.821,0c-0.173,0-0.35,0.041-0.514,0.127l-1.743,0.914
	c-0.02-0.047-0.041-0.094-0.068-0.139c-0.207-0.348-0.576-0.544-0.956-0.544c-0.18,0-0.362,0.043-0.531,0.136L0.575,11.138
	C0.208,11.339-0.015,11.73,0,12.149C0.008,12.365,0.08,12.569,0.198,12.74z"/>
</svg>
