<?xml version="1.0" encoding="utf-8"?>
<!-- Generator: Adobe Illustrator 16.0.0, SVG Export Plug-In . SVG Version: 6.00 Build 0)  -->
<!DOCTYPE svg PUBLIC "-//W3C//DTD SVG 1.1//EN" "http://www.w3.org/Graphics/SVG/1.1/DTD/svg11.dtd">
<svg version="1.1" id="Layer_2" xmlns="http://www.w3.org/2000/svg" xmlns:xlink="http://www.w3.org/1999/xlink" x="0px" y="0px"
	 width="58.716px" height="25.641px" viewBox="0 0 58.716 25.641" enable-background="new 0 0 58.716 25.641" xml:space="preserve">
<path fill="#FFFFFF" d="M58.518,12.9c0.012-0.07,0.02-0.141,0.019-0.213c-0.005-0.213-0.07-0.414-0.183-0.585
	c0.001-0.034,0.003-0.067,0.001-0.102c-0.023-0.401-0.26-0.759-0.622-0.935L35.199,0.111c-0.452-0.219-0.997-0.108-1.324,0.272
	c-0.329,0.381-0.359,0.936-0.076,1.35c0.315,0.462,0.645,0.947,0.938,1.382c0.013,0.021,0.026,0.04,0.04,0.06
	c0.405,0.6,0.734,1.093,0.85,1.271c0.054,0.159,0.145,0.307,0.269,0.429c0.151,0.15,0.35,0.259,0.559,0.307
	c0.929,0.375,4.268,2.729,12.374,6.565l-1.163,0.064L6.022,5.618c-0.402-0.056-0.792,0.1-1.038,0.415
	C4.738,6.348,4.682,6.771,4.834,7.141l1.913,4.6l-0.19-0.008c-0.073-0.006-0.158,0.001-0.237,0.016l-5.404,1.141
	c-0.565,0.101-0.96,0.613-0.912,1.185c0.048,0.572,0.524,1.013,1.098,1.016l2.667,0.021c-0.012,0.07-0.016,0.143-0.013,0.218
	c0.022,0.597,0.513,1.066,1.107,1.066c0.007,0,0.015,0,0.024,0l41.217-0.867l1.438,0.057l-4.354,3.346l-8.81,4.621
	c-0.541,0.284-0.751,0.954-0.466,1.496c0.198,0.378,0.583,0.594,0.983,0.594c0.173,0,0.35-0.041,0.514-0.127l1.743-0.914
	c0.02,0.047,0.041,0.094,0.068,0.139c0.207,0.348,0.576,0.544,0.956,0.544c0.18,0,0.362-0.043,0.531-0.136l19.435-10.644
	c0.368-0.201,0.59-0.593,0.575-1.012C58.708,13.275,58.636,13.071,58.518,12.9z"/>
</svg>
